<svg width="1200" height="820" viewBox="0 0 1200 820" fill="none" xmlns="http://www.w3.org/2000/svg">
  <rect width="1200" height="820" rx="36" fill="#F8FAF8"/>
  <path d="M0 0H1200V820H0V0Z" fill="url(#bg)"/>
  <circle cx="970" cy="112" r="220" fill="#E8F3EF"/>
  <circle cx="184" cy="650" r="190" fill="#F4EBD5"/>
  <rect x="112" y="108" width="520" height="604" rx="30" fill="white" stroke="#D7E3DE" stroke-width="3"/>
  <rect x="160" y="160" width="206" height="18" rx="9" fill="#0F5F4C"/>
  <rect x="160" y="206" width="360" height="12" rx="6" fill="#CEDDD7"/>
  <rect x="160" y="244" width="310" height="12" rx="6" fill="#CEDDD7"/>
  <rect x="160" y="314" width="384" height="86" rx="16" fill="#EEF7F2"/>
  <circle cx="203" cy="357" r="20" fill="#0F5F4C"/>
  <path d="M194 357L201 364L214 348" stroke="white" stroke-width="5" stroke-linecap="round" stroke-linejoin="round"/>
  <rect x="245" y="338" width="206" height="13" rx="6.5" fill="#17342D"/>
  <rect x="245" y="365" width="242" height="10" rx="5" fill="#93AAA1"/>
  <rect x="160" y="428" width="384" height="86" rx="16" fill="#FFF8E6"/>
  <circle cx="203" cy="471" r="20" fill="#D8B76A"/>
  <path d="M203 458V472L213 477" stroke="white" stroke-width="5" stroke-linecap="round" stroke-linejoin="round"/>
  <rect x="245" y="452" width="230" height="13" rx="6.5" fill="#17342D"/>
  <rect x="245" y="479" width="210" height="10" rx="5" fill="#A78B45"/>
  <rect x="160" y="542" width="384" height="86" rx="16" fill="#F5F7F4"/>
  <circle cx="203" cy="585" r="20" fill="#17342D"/>
  <path d="M194 585H212M203 576V594" stroke="white" stroke-width="5" stroke-linecap="round"/>
  <rect x="245" y="566" width="254" height="13" rx="6.5" fill="#17342D"/>
  <rect x="245" y="593" width="184" height="10" rx="5" fill="#93AAA1"/>
  <rect x="704" y="170" width="336" height="456" rx="168" fill="#0F5F4C"/>
  <path d="M872 236C807.935 236 756 287.935 756 352C756 416.065 807.935 468 872 468C936.065 468 988 416.065 988 352C988 287.935 936.065 236 872 236Z" fill="#F8FAF8"/>
  <path d="M828 355L862 389L925 322" stroke="#0F5F4C" stroke-width="22" stroke-linecap="round" stroke-linejoin="round"/>
  <rect x="742" y="520" width="260" height="64" rx="18" fill="white"/>
  <rect x="780" y="544" width="184" height="16" rx="8" fill="#D8B76A"/>
  <defs>
    <linearGradient id="bg" x1="90" y1="54" x2="1050" y2="820" gradientUnits="userSpaceOnUse">
      <stop stop-color="#FBFCFB"/>
      <stop offset="1" stop-color="#EEF7F2"/>
    </linearGradient>
  </defs>
</svg>
