<svg width="1200" height="520" viewBox="0 0 1200 520" fill="none" xmlns="http://www.w3.org/2000/svg">
  <rect width="1200" height="520" fill="#17342D"/>
  <path d="M0 0H1200V520H0V0Z" fill="url(#paint0_linear)"/>
  <circle cx="1012" cy="102" r="220" fill="#2B6E5B" opacity="0.35"/>
  <circle cx="126" cy="468" r="180" fill="#D8B76A" opacity="0.18"/>
  <rect x="116" y="92" width="392" height="336" rx="26" fill="#F8FAF8"/>
  <rect x="158" y="140" width="164" height="16" rx="8" fill="#0F5F4C"/>
  <rect x="158" y="188" width="278" height="12" rx="6" fill="#CEDDD7"/>
  <rect x="158" y="226" width="214" height="12" rx="6" fill="#CEDDD7"/>
  <rect x="158" y="286" width="278" height="70" rx="16" fill="#EEF7F2"/>
  <path d="M188 321L204 337L232 305" stroke="#0F5F4C" stroke-width="9" stroke-linecap="round" stroke-linejoin="round"/>
  <rect x="258" y="310" width="132" height="13" rx="6.5" fill="#17342D"/>
  <rect x="258" y="334" width="102" height="10" rx="5" fill="#93AAA1"/>
  <rect x="664" y="96" width="356" height="336" rx="26" fill="white" fill-opacity="0.12" stroke="#91D0B7" stroke-opacity="0.45"/>
  <path d="M768 214C768 188.595 788.595 168 814 168H870C895.405 168 916 188.595 916 214V270C916 295.405 895.405 316 870 316H814C788.595 316 768 295.405 768 270V214Z" fill="#F8FAF8"/>
  <path d="M820 245H864M842 223V267" stroke="#0F5F4C" stroke-width="12" stroke-linecap="round"/>
  <rect x="714" y="354" width="256" height="18" rx="9" fill="#D8B76A"/>
  <rect x="752" y="386" width="180" height="12" rx="6" fill="#C6D8D1"/>
  <defs>
    <linearGradient id="paint0_linear" x1="0" y1="0" x2="1200" y2="520" gradientUnits="userSpaceOnUse">
      <stop stop-color="#17342D"/>
      <stop offset="1" stop-color="#0F5F4C"/>
    </linearGradient>
  </defs>
</svg>
