<?xml version="1.0" standalone="no"?><!DOCTYPE svg PUBLIC "-//W3C//DTD SVG 1.1//EN" "http://www.w3.org/Graphics/SVG/1.1/DTD/svg11.dtd"><svg t="1768375177727" class="icon" viewBox="0 0 1024 1024" version="1.1" xmlns="http://www.w3.org/2000/svg" p-id="9638" xmlns:xlink="http://www.w3.org/1999/xlink" width="48" height="48"><path d="M996.454 466.125c5.158 8.779 1.7 20.394-7.751 25.945l-52.207 30.706c-9.428 5.547-21.262 2.932-26.416-5.854L769.423 277.774c-5.164-8.776-1.706-20.392 7.735-25.935l52.207-30.706c9.43-5.55 21.272-2.94 26.44 5.84l140.65 239.152zM119.842 522.68a19.821 19.821 0 0 1-25.678 11.25l-56.416-22.029a19.818 19.818 0 0 1-11.243-25.668L134.99 208.418a19.831 19.831 0 0 1 25.668-11.254l56.419 22.037a19.828 19.828 0 0 1 11.264 25.672l-108.5 277.807z m645.796-234.284l139.223 235.933-108.933 113.596-237.684-256.359s-12.626-18.602-26.119-9.28c-13.49 9.321-143.985 76.895-143.985 76.895s-41.946 18.644-55.924 2.331c-13.977-16.312-20.971-49.015 0-69.946 20.975-20.93 174.848-117.21 207.391-126.812 26.651-7.868 66.096-18.893 101.362 11.797 33.639 29.272 97.024 31.98 124.669 21.845z m-245.443 541.44c-13.742 14.455-36.597 15.036-51.056 1.297-14.46-13.749-15.036-36.611-1.294-51.063l32.915-34.629c13.742-14.455 36.604-15.035 51.063-1.297 14.456 13.746 15.036 36.612 1.297 51.067l-32.925 34.625zM278.275 680.84c-12.43 13.083-33.815 12.94-47.749-0.311-13.947-13.257-15.169-34.601-2.724-47.68l29.778-31.325c12.432-13.083 33.81-12.94 47.753 0.307 13.943 13.254 15.159 34.601 2.734 47.681l-29.792 31.328zM432.561 787.75c-12.076 12.748-33.41 12.148-47.643-1.338-14.23-13.48-15.988-34.752-3.905-47.494l69.206-73.052c12.076-12.752 33.413-12.155 47.636 1.335 14.24 13.48 15.995 34.748 3.912 47.496L432.56 787.75z m-71.97-56.215c-10.578 11.169-30.508 9.469-44.503-3.785-13.994-13.257-16.766-33.065-6.188-44.23l60.634-64.003c10.578-11.165 30.499-9.469 44.497 3.788 13.998 13.258 16.77 33.062 6.188 44.23l-60.628 64z" p-id="9639" fill="#0052CC"></path><path d="M236.49 598.934l-19.75 20.528-79.097-84.166s-8.158-3.024 0-27.672c8.15-24.651 96.7-249.515 96.7-249.515s12.816-11.656 22.135-4.662c9.325 6.99 27.576 34.952 46.998 30.293 19.415-4.659 100.973-61.71 130.103-55.9 29.126 5.806 58.252 26.774 58.252 26.774l-24.464 15.145s-24.682-15.145-39.724-13.98c-15.032 1.163-110.19 63.5-129.219 61.17-19.026-2.335-48.926-22.723-48.926-22.723s-86.904 210.678-84.327 224.43c1.304 6.984 71.318 80.278 71.318 80.278z m337.63 191.007s51.988 17.507 49.37-39.294l-79.52-93.97s-6.404-19.623 19.083-18.752l88.399 100.997s27.958 14.677 46.305-4.71c18.354-19.388 4.37-38.612 4.37-38.612l-81.266-95.246s-9.594-12.237 4.38-22.719c13.974-10.486 25.334 8.735 25.334 8.735l83.008 99.737s24.788 18.456 52.433-4.488c23.149-19.22 20.534-53.081 20.534-53.081l-0.256-16.398 19.917-12.875s14.766 70.472-16.254 98.437c-31.028 27.966-77.425 17.538-77.425 17.538S728.34 752.404 703 764.634c-25.34 12.24-49.804 4.37-49.804 4.37s0.867 32.334-28.836 47.185c-29.713 14.859-67.287 0-67.287 0l17.046-26.248z" p-id="9640" fill="#0052CC"></path></svg>